<svg width="28" height="28" viewBox="0 0 28 28" fill="none" xmlns="http://www.w3.org/2000/svg">
  <path d="M24.5 14V13.0667C24.5 11.7599 24.5 11.1065 24.2457 10.6073C24.022 10.1683 23.665 9.81135 23.226 9.58764C22.7269 9.33332 22.0735 9.33332 20.7667 9.33332H3.5M24.5 14V18.6667M24.5 14H22.1667C20.878 14 19.8333 15.0447 19.8333 16.3333C19.8333 17.622 20.878 18.6667 22.1667 18.6667H24.5M24.5 18.6667V19.6C24.5 20.9068 24.5 21.5602 24.2457 22.0593C24.022 22.4983 23.665 22.8553 23.226 23.079C22.7269 23.3333 22.0735 23.3333 20.7667 23.3333H7.23333C5.92654 23.3333 5.27315 23.3333 4.77402 23.079C4.33498 22.8553 3.97802 22.4983 3.75432 22.0593C3.5 21.5602 3.5 20.9068 3.5 19.6V9.33332M21 9.33332V8.39999C21 7.0932 21 6.43981 20.7457 5.94068C20.522 5.50163 20.165 5.14468 19.726 4.92097C19.2268 4.66666 18.5735 4.66666 17.2667 4.66666H7.23333C5.92654 4.66666 5.27315 4.66666 4.77402 4.92097C4.33498 5.14468 3.97802 5.50163 3.75432 5.94068C3.5 6.43981 3.5 7.0932 3.5 8.39999V9.33332" stroke="#E6EDE4" stroke-width="1.5" stroke-linecap="round" stroke-linejoin="round"/>
</svg>
